<svg width="261" height="295" viewBox="0 0 261 295" fill="none" xmlns="http://www.w3.org/2000/svg">
<g clip-path="url(#clip0_4_2)">
<path d="M65 139L126 75L190 139L126 224L65 139Z" fill="#FFAEB4" stroke="#3A6769"/>
<path d="M86 69L52 101L43 50L86 69Z" fill="#FFAEB4" stroke="#3A6769"/>
<path d="M148 48H105L125.368 2L148 48Z" fill="#FFAEB4" stroke="#3A6769"/>
<path d="M201 102L169 72L218 48L201 102Z" fill="#FFAEB4" stroke="#3A6769"/>
<path d="M194.828 180L170 218L218 229L194.828 180Z" fill="#FFAEB4" stroke="#3A6769"/>
<path d="M218 160V123L259 143.756L218 160Z" fill="#FFAEB4" stroke="#3A6769"/>
<path d="M41 160V120L2 141L41 160Z" fill="#FFAEB4" stroke="#3A6769"/>
<path d="M83 216.963L56.1887 179L34 229L83 216.963Z" fill="#FFAEB4" stroke="#3A6769"/>
<path d="M150 244H104L127 293L150 244Z" fill="#FFAEB4" stroke="#3A6769"/>
</g>
<defs>
<clipPath id="clip0_4_2">
<rect width="261" height="295" fill="white"/>
</clipPath>
</defs>
</svg>
